<?xml version="1.0" encoding="UTF-8" standalone="no"?>
<!DOCTYPE svg PUBLIC "-//W3C//DTD SVG 1.1//EN"
 "http://www.w3.org/Graphics/SVG/1.1/DTD/svg11.dtd">
<!-- Generated by graphviz version 2.40.1 (20161225.0304)
 -->
<!-- Title: graphname Pages: 1 -->
<svg width="2920pt" height="1856pt"
 viewBox="0.00 0.00 2919.84 1855.56" xmlns="http://www.w3.org/2000/svg" xmlns:xlink="http://www.w3.org/1999/xlink">
<g id="graph0" class="graph" transform="scale(1 1) rotate(0) translate(4 1851.5632)">
<title>graphname</title>
<polygon fill="#ffffff" stroke="transparent" points="-4,4 -4,-1851.5632 2915.8398,-1851.5632 2915.8398,4 -4,4"/>
<!-- 0 -->
<g id="node1" class="node">
<title>0</title>
<ellipse fill="#ffcaca" stroke="#000000" cx="1730.9944" cy="-641.3514" rx="61.99" ry="18"/>
<text text-anchor="middle" x="1730.9944" y="-637.6514" font-family="Times,serif" font-size="14.00" fill="#000000">0 &#45; 20.627779</text>
</g>
<!-- 16 -->
<g id="node2" class="node">
<title>16</title>
<ellipse fill="#ffd1d1" stroke="#000000" cx="2028.157" cy="-696.7518" rx="66.0889" ry="18"/>
<text text-anchor="middle" x="2028.157" y="-693.0518" font-family="Times,serif" font-size="14.00" fill="#000000">16 &#45; 17.797438</text>
</g>
<!-- 0&#45;&#45;16 -->
<g id="edge1" class="edge">
<title>0&#45;&#45;16</title>
<path fill="none" stroke="#000000" d="M1783.0962,-651.0648C1836.4451,-661.0107 1919.0299,-676.4071 1973.3441,-686.533"/>
</g>
<!-- 51 -->
<g id="node3" class="node">
<title>51</title>
<ellipse fill="#ffd0d0" stroke="#000000" cx="1463.9708" cy="-704.1236" rx="66.0889" ry="18"/>
<text text-anchor="middle" x="1463.9708" y="-700.4236" font-family="Times,serif" font-size="14.00" fill="#000000">51 &#45; 18.384523</text>
</g>
<!-- 0&#45;&#45;51 -->
<g id="edge2" class="edge">
<title>0&#45;&#45;51</title>
<path fill="none" stroke="#000000" d="M1682.6385,-652.719C1634.9963,-663.9188 1562.5255,-680.9553 1514.2339,-692.3077"/>
</g>
<!-- 52 -->
<g id="node4" class="node">
<title>52</title>
<ellipse fill="#ffaaaa" stroke="#000000" cx="1959.2088" cy="-334.0198" rx="66.0889" ry="18"/>
<text text-anchor="middle" x="1959.2088" y="-330.3198" font-family="Times,serif" font-size="14.00" fill="#000000">52 &#45; 33.157936</text>
</g>
<!-- 0&#45;&#45;52 -->
<g id="edge3" class="edge">
<title>0&#45;&#45;52</title>
<path fill="none" stroke="#000000" d="M1744.2506,-623.4996C1784.5857,-569.1811 1905.5322,-406.305 1945.9161,-351.9209"/>
</g>
<!-- 1 -->
<g id="node5" class="node">
<title>1</title>
<ellipse fill="#ff7979" stroke="#000000" cx="1172.0214" cy="-898.175" rx="61.99" ry="18"/>
<text text-anchor="middle" x="1172.0214" y="-894.475" font-family="Times,serif" font-size="14.00" fill="#000000">1 &#45; 52.404118</text>
</g>
<!-- 0&#45;&#45;1 -->
<g id="edge4" class="edge">
<title>0&#45;&#45;1</title>
<path fill="none" stroke="#000000" d="M1697.7021,-656.6478C1598.2834,-702.3263 1304.3299,-837.385 1205.1392,-882.9588"/>
</g>
<!-- 34 -->
<g id="node22" class="node">
<title>34</title>
<ellipse fill="#ffe4e4" stroke="#000000" cx="1899.5995" cy="-1234.5729" rx="66.0889" ry="18"/>
<text text-anchor="middle" x="1899.5995" y="-1230.8729" font-family="Times,serif" font-size="14.00" fill="#000000">34 &#45; 10.533334</text>
</g>
<!-- 16&#45;&#45;34 -->
<g id="edge23" class="edge">
<title>16&#45;&#45;34</title>
<path fill="none" stroke="#000000" d="M2023.806,-714.9543C2004.1346,-797.2497 1923.6186,-1134.0889 1903.9495,-1216.375"/>
</g>
<!-- 61 -->
<g id="node23" class="node">
<title>61</title>
<ellipse fill="#fff5f5" stroke="#000000" cx="1622.1437" cy="-975.5945" rx="61.99" ry="18"/>
<text text-anchor="middle" x="1622.1437" y="-971.8945" font-family="Times,serif" font-size="14.00" fill="#000000">61 &#45; 3.558333</text>
</g>
<!-- 51&#45;&#45;61 -->
<g id="edge90" class="edge">
<title>51&#45;&#45;61</title>
<path fill="none" stroke="#000000" d="M1474.349,-721.9356C1503.0089,-771.1245 1583.0218,-908.4498 1611.7273,-957.7169"/>
</g>
<!-- 62 -->
<g id="node53" class="node">
<title>62</title>
<ellipse fill="#ffeeee" stroke="#000000" cx="2531.84" cy="-247.2753" rx="61.99" ry="18"/>
<text text-anchor="middle" x="2531.84" y="-243.5753" font-family="Times,serif" font-size="14.00" fill="#000000">62 &#45; 6.400000</text>
</g>
<!-- 52&#45;&#45;62 -->
<g id="edge91" class="edge">
<title>52&#45;&#45;62</title>
<path fill="none" stroke="#000000" d="M2017.2671,-325.2249C2128.1577,-308.4267 2368.6765,-271.992 2477.0026,-255.5823"/>
</g>
<!-- 29 -->
<g id="node6" class="node">
<title>29</title>
<ellipse fill="#ffc8c8" stroke="#000000" cx="797.3618" cy="-1372.5102" rx="66.0889" ry="18"/>
<text text-anchor="middle" x="797.3618" y="-1368.8102" font-family="Times,serif" font-size="14.00" fill="#000000">29 &#45; 21.221704</text>
</g>
<!-- 1&#45;&#45;29 -->
<g id="edge5" class="edge">
<title>1&#45;&#45;29</title>
<path fill="none" stroke="#000000" d="M1158.018,-915.9038C1099.0354,-990.5783 871.1322,-1279.1137 811.6358,-1354.4387"/>
</g>
<!-- 21 -->
<g id="node7" class="node">
<title>21</title>
<ellipse fill="#ff8383" stroke="#000000" cx="1261.3288" cy="-1368.5943" rx="66.0889" ry="18"/>
<text text-anchor="middle" x="1261.3288" y="-1364.8943" font-family="Times,serif" font-size="14.00" fill="#000000">21 &#45; 48.615387</text>
</g>
<!-- 1&#45;&#45;21 -->
<g id="edge6" class="edge">
<title>1&#45;&#45;21</title>
<path fill="none" stroke="#000000" d="M1175.4676,-916.3278C1189.6844,-991.2136 1243.6952,-1275.7109 1257.8928,-1350.4957"/>
</g>
<!-- 40 -->
<g id="node8" class="node">
<title>40</title>
<ellipse fill="#ffc9c9" stroke="#000000" cx="691.5973" cy="-1090.5052" rx="66.0889" ry="18"/>
<text text-anchor="middle" x="691.5973" y="-1086.8052" font-family="Times,serif" font-size="14.00" fill="#000000">40 &#45; 20.926191</text>
</g>
<!-- 1&#45;&#45;40 -->
<g id="edge7" class="edge">
<title>1&#45;&#45;40</title>
<path fill="none" stroke="#000000" d="M1135.5171,-912.7889C1046.5047,-948.4236 819.0098,-1039.4976 729.0364,-1075.517"/>
</g>
<!-- 10 -->
<g id="node9" class="node">
<title>10</title>
<ellipse fill="#ffd0d0" stroke="#000000" cx="1286.8227" cy="-251.7998" rx="66.0889" ry="18"/>
<text text-anchor="middle" x="1286.8227" y="-248.0998" font-family="Times,serif" font-size="14.00" fill="#000000">10 &#45; 18.312332</text>
</g>
<!-- 1&#45;&#45;10 -->
<g id="edge8" class="edge">
<title>1&#45;&#45;10</title>
<path fill="none" stroke="#000000" d="M1175.2722,-879.8714C1191.8748,-786.3927 1267.0645,-363.0459 1283.6002,-269.9437"/>
</g>
<!-- 3 -->
<g id="node30" class="node">
<title>3</title>
<ellipse fill="#ffdddd" stroke="#000000" cx="585.8635" cy="-1357.9785" rx="61.99" ry="18"/>
<text text-anchor="middle" x="585.8635" y="-1354.2785" font-family="Times,serif" font-size="14.00" fill="#000000">3 &#45; 13.250550</text>
</g>
<!-- 29&#45;&#45;3 -->
<g id="edge60" class="edge">
<title>29&#45;&#45;3</title>
<path fill="none" stroke="#000000" d="M733.0439,-1368.091C705.4563,-1366.1955 673.4003,-1363.993 646.2609,-1362.1283"/>
</g>
<!-- 42 -->
<g id="node44" class="node">
<title>42</title>
<ellipse fill="#ffe8e8" stroke="#000000" cx="980.8158" cy="-1829.5632" rx="61.99" ry="18"/>
<text text-anchor="middle" x="980.8158" y="-1825.8632" font-family="Times,serif" font-size="14.00" fill="#000000">42 &#45; 8.833334</text>
</g>
<!-- 29&#45;&#45;42 -->
<g id="edge61" class="edge">
<title>29&#45;&#45;42</title>
<path fill="none" stroke="#000000" d="M804.5534,-1390.4272C833.8342,-1463.3767 943.9202,-1737.6424 973.4745,-1811.2734"/>
</g>
<!-- 21&#45;&#45;34 -->
<g id="edge40" class="edge">
<title>21&#45;&#45;34</title>
<path fill="none" stroke="#000000" d="M1313.8324,-1357.5699C1433.8592,-1332.3671 1727.1789,-1270.7771 1847.1519,-1245.5856"/>
</g>
<!-- 21&#45;&#45;3 -->
<g id="edge41" class="edge">
<title>21&#45;&#45;3</title>
<path fill="none" stroke="#000000" d="M1195.0235,-1367.5523C1064.2251,-1365.4966 774.6617,-1360.9457 647.6321,-1358.9493"/>
</g>
<!-- 41 -->
<g id="node34" class="node">
<title>41</title>
<ellipse fill="#ff9d9d" stroke="#000000" cx="1004.1821" cy="-1555.6263" rx="66.0889" ry="18"/>
<text text-anchor="middle" x="1004.1821" y="-1551.9263" font-family="Times,serif" font-size="14.00" fill="#000000">41 &#45; 38.292854</text>
</g>
<!-- 21&#45;&#45;41 -->
<g id="edge42" class="edge">
<title>21&#45;&#45;41</title>
<path fill="none" stroke="#000000" d="M1238.0552,-1385.522C1189.221,-1421.0409 1076.538,-1502.9993 1027.5884,-1538.6021"/>
</g>
<!-- 40&#45;&#45;41 -->
<g id="edge78" class="edge">
<title>40&#45;&#45;41</title>
<path fill="none" stroke="#000000" d="M703.6595,-1108.4535C753.4197,-1182.4959 942.4628,-1463.7889 992.1559,-1537.7315"/>
</g>
<!-- 23 -->
<g id="node10" class="node">
<title>23</title>
<ellipse fill="#ffbdbd" stroke="#000000" cx="914.0233" cy="-190.0363" rx="66.0889" ry="18"/>
<text text-anchor="middle" x="914.0233" y="-186.3363" font-family="Times,serif" font-size="14.00" fill="#000000">23 &#45; 25.818531</text>
</g>
<!-- 10&#45;&#45;23 -->
<g id="edge9" class="edge">
<title>10&#45;&#45;23</title>
<path fill="none" stroke="#000000" d="M1230.2025,-242.4192C1160.0311,-230.7936 1041.146,-211.0973 970.87,-199.4544"/>
</g>
<!-- 11 -->
<g id="node11" class="node">
<title>11</title>
<ellipse fill="#fff7f7" stroke="#000000" cx="1825.0483" cy="-237.1925" rx="61.99" ry="18"/>
<text text-anchor="middle" x="1825.0483" y="-233.4925" font-family="Times,serif" font-size="14.00" fill="#000000">11 &#45; 2.964103</text>
</g>
<!-- 10&#45;&#45;11 -->
<g id="edge10" class="edge">
<title>10&#45;&#45;11</title>
<path fill="none" stroke="#000000" d="M1352.8197,-250.0086C1457.8039,-247.1594 1661.3867,-241.6342 1763.5037,-238.8628"/>
</g>
<!-- 12 -->
<g id="node12" class="node">
<title>12</title>
<ellipse fill="#ffdddd" stroke="#000000" cx="902.1758" cy="-18" rx="66.0889" ry="18"/>
<text text-anchor="middle" x="902.1758" y="-14.3" font-family="Times,serif" font-size="14.00" fill="#000000">12 &#45; 13.018408</text>
</g>
<!-- 10&#45;&#45;12 -->
<g id="edge11" class="edge">
<title>10&#45;&#45;12</title>
<path fill="none" stroke="#000000" d="M1259.775,-235.3594C1189.2361,-192.4838 1000.2428,-77.608 929.4505,-34.5783"/>
</g>
<!-- 24 -->
<g id="node14" class="node">
<title>24</title>
<ellipse fill="#ffe9e9" stroke="#000000" cx="448.5455" cy="-129.9195" rx="61.99" ry="18"/>
<text text-anchor="middle" x="448.5455" y="-126.2195" font-family="Times,serif" font-size="14.00" fill="#000000">24 &#45; 8.267155</text>
</g>
<!-- 23&#45;&#45;24 -->
<g id="edge46" class="edge">
<title>23&#45;&#45;24</title>
<path fill="none" stroke="#000000" d="M854.1231,-182.3002C763.7632,-170.6301 593.7737,-148.6758 505.3021,-137.2497"/>
</g>
<!-- 59 -->
<g id="node36" class="node">
<title>59</title>
<ellipse fill="#ffe1e1" stroke="#000000" cx="1034.4662" cy="-322.0647" rx="66.0889" ry="18"/>
<text text-anchor="middle" x="1034.4662" y="-318.3647" font-family="Times,serif" font-size="14.00" fill="#000000">59 &#45; 11.643590</text>
</g>
<!-- 23&#45;&#45;59 -->
<g id="edge47" class="edge">
<title>23&#45;&#45;59</title>
<path fill="none" stroke="#000000" d="M930.0172,-207.5687C953.0535,-232.8209 995.333,-279.1673 1018.4061,-304.4598"/>
</g>
<!-- 45 -->
<g id="node37" class="node">
<title>45</title>
<ellipse fill="#ffecec" stroke="#000000" cx="1501.6254" cy="-214.5891" rx="61.99" ry="18"/>
<text text-anchor="middle" x="1501.6254" y="-210.8891" font-family="Times,serif" font-size="14.00" fill="#000000">45 &#45; 7.269048</text>
</g>
<!-- 23&#45;&#45;45 -->
<g id="edge48" class="edge">
<title>23&#45;&#45;45</title>
<path fill="none" stroke="#000000" d="M979.7183,-192.7814C1094.2686,-197.5678 1328.9483,-207.3738 1440.3351,-212.0281"/>
</g>
<!-- 11&#45;&#45;16 -->
<g id="edge12" class="edge">
<title>11&#45;&#45;16</title>
<path fill="none" stroke="#000000" d="M1833.0104,-255.2078C1865.5016,-328.7232 1987.8605,-605.5758 2020.25,-678.8611"/>
</g>
<!-- 6 -->
<g id="node13" class="node">
<title>6</title>
<ellipse fill="#ffecec" stroke="#000000" cx="684.2838" cy="-94.7934" rx="57.3905" ry="18"/>
<text text-anchor="middle" x="684.2838" y="-91.0934" font-family="Times,serif" font-size="14.00" fill="#000000">6 &#45; 7.116483</text>
</g>
<!-- 12&#45;&#45;6 -->
<g id="edge13" class="edge">
<title>12&#45;&#45;6</title>
<path fill="none" stroke="#000000" d="M861.7026,-32.2643C821.9505,-46.2744 761.7446,-67.4933 722.7125,-81.2496"/>
</g>
<!-- 12&#45;&#45;24 -->
<g id="edge14" class="edge">
<title>12&#45;&#45;24</title>
<path fill="none" stroke="#000000" d="M852.7659,-30.1904C764.8173,-51.8891 582.2568,-96.9303 495.8464,-118.2494"/>
</g>
<!-- 13 -->
<g id="node15" class="node">
<title>13</title>
<ellipse fill="#ffb3b3" stroke="#000000" cx="1132.7472" cy="-431.3545" rx="66.0889" ry="18"/>
<text text-anchor="middle" x="1132.7472" y="-427.6545" font-family="Times,serif" font-size="14.00" fill="#000000">13 &#45; 29.449999</text>
</g>
<!-- 12&#45;&#45;13 -->
<g id="edge15" class="edge">
<title>12&#45;&#45;13</title>
<path fill="none" stroke="#000000" d="M912.2314,-36.0271C950.1958,-104.0872 1084.5848,-345.0119 1122.6386,-413.2325"/>
</g>
<!-- 7 -->
<g id="node38" class="node">
<title>7</title>
<ellipse fill="#fffefe" stroke="#000000" cx="238.1163" cy="-55.2603" rx="57.3905" ry="18"/>
<text text-anchor="middle" x="238.1163" y="-51.5603" font-family="Times,serif" font-size="14.00" fill="#000000">7 &#45; 0.333333</text>
</g>
<!-- 6&#45;&#45;7 -->
<g id="edge99" class="edge">
<title>6&#45;&#45;7</title>
<path fill="none" stroke="#000000" d="M629.1274,-89.9062C543.445,-82.3142 379.3153,-67.7714 293.4965,-60.1673"/>
</g>
<!-- 24&#45;&#45;7 -->
<g id="edge49" class="edge">
<title>24&#45;&#45;7</title>
<path fill="none" stroke="#000000" d="M408.9654,-115.8767C370.8678,-102.3598 313.6542,-82.0608 276.1015,-68.7373"/>
</g>
<!-- 26 -->
<g id="node39" class="node">
<title>26</title>
<ellipse fill="#fff2f2" stroke="#000000" cx="349.4932" cy="-486.6902" rx="61.99" ry="18"/>
<text text-anchor="middle" x="349.4932" y="-482.9902" font-family="Times,serif" font-size="14.00" fill="#000000">26 &#45; 4.983334</text>
</g>
<!-- 24&#45;&#45;26 -->
<g id="edge50" class="edge">
<title>24&#45;&#45;26</title>
<path fill="none" stroke="#000000" d="M443.4973,-148.1023C426.5057,-209.3034 371.5077,-407.3975 354.5313,-468.544"/>
</g>
<!-- 58 -->
<g id="node16" class="node">
<title>58</title>
<ellipse fill="#ff7f7f" stroke="#000000" cx="1308.0736" cy="-900.1377" rx="66.0889" ry="18"/>
<text text-anchor="middle" x="1308.0736" y="-896.4377" font-family="Times,serif" font-size="14.00" fill="#000000">58 &#45; 49.820515</text>
</g>
<!-- 13&#45;&#45;58 -->
<g id="edge16" class="edge">
<title>13&#45;&#45;58</title>
<path fill="none" stroke="#000000" d="M1139.5128,-449.4441C1167.4229,-524.0695 1273.4557,-807.5773 1301.3282,-882.102"/>
</g>
<!-- 54 -->
<g id="node17" class="node">
<title>54</title>
<ellipse fill="#fff8f8" stroke="#000000" cx="1176.2685" cy="-745.105" rx="61.99" ry="18"/>
<text text-anchor="middle" x="1176.2685" y="-741.405" font-family="Times,serif" font-size="14.00" fill="#000000">54 &#45; 2.491667</text>
</g>
<!-- 13&#45;&#45;54 -->
<g id="edge17" class="edge">
<title>13&#45;&#45;54</title>
<path fill="none" stroke="#000000" d="M1135.2752,-449.5792C1142.9673,-505.0322 1166.0322,-671.3101 1173.7335,-726.83"/>
</g>
<!-- 14 -->
<g id="node18" class="node">
<title>14</title>
<ellipse fill="#ffe7e7" stroke="#000000" cx="906.625" cy="-559.4825" rx="61.99" ry="18"/>
<text text-anchor="middle" x="906.625" y="-555.7825" font-family="Times,serif" font-size="14.00" fill="#000000">14 &#45; 9.409525</text>
</g>
<!-- 13&#45;&#45;14 -->
<g id="edge18" class="edge">
<title>13&#45;&#45;14</title>
<path fill="none" stroke="#000000" d="M1103.6486,-447.8427C1059.9917,-472.5801 978.0711,-518.9989 934.9008,-543.4606"/>
</g>
<!-- 58&#45;&#45;59 -->
<g id="edge97" class="edge">
<title>58&#45;&#45;59</title>
<path fill="none" stroke="#000000" d="M1299.585,-882.2032C1258.8601,-796.1603 1083.795,-426.2857 1042.9908,-340.0754"/>
</g>
<!-- 55 -->
<g id="node24" class="node">
<title>55</title>
<ellipse fill="#ffbbbb" stroke="#000000" cx="1233.8051" cy="-1240.3052" rx="66.0889" ry="18"/>
<text text-anchor="middle" x="1233.8051" y="-1236.6052" font-family="Times,serif" font-size="14.00" fill="#000000">55 &#45; 26.592857</text>
</g>
<!-- 54&#45;&#45;55 -->
<g id="edge93" class="edge">
<title>54&#45;&#45;55</title>
<path fill="none" stroke="#000000" d="M1178.3845,-763.3167C1187.4166,-841.0536 1222.6899,-1144.6399 1231.7003,-1222.1899"/>
</g>
<!-- 14&#45;&#45;6 -->
<g id="edge19" class="edge">
<title>14&#45;&#45;6</title>
<path fill="none" stroke="#000000" d="M898.0452,-541.5509C862.6508,-467.5772 728.1847,-186.5454 692.838,-112.6716"/>
</g>
<!-- 22 -->
<g id="node19" class="node">
<title>22</title>
<ellipse fill="#ffb6b6" stroke="#000000" cx="1451.1325" cy="-577.3231" rx="66.0889" ry="18"/>
<text text-anchor="middle" x="1451.1325" y="-573.6231" font-family="Times,serif" font-size="14.00" fill="#000000">22 &#45; 28.467857</text>
</g>
<!-- 14&#45;&#45;22 -->
<g id="edge20" class="edge">
<title>14&#45;&#45;22</title>
<path fill="none" stroke="#000000" d="M968.0285,-561.4944C1071.3538,-564.8798 1279.0784,-571.6858 1385.3029,-575.1662"/>
</g>
<!-- 17 -->
<g id="node20" class="node">
<title>17</title>
<ellipse fill="#ffcdcd" stroke="#000000" cx="1178.2671" cy="-1084.814" rx="66.0889" ry="18"/>
<text text-anchor="middle" x="1178.2671" y="-1081.114" font-family="Times,serif" font-size="14.00" fill="#000000">17 &#45; 19.308332</text>
</g>
<!-- 14&#45;&#45;17 -->
<g id="edge21" class="edge">
<title>14&#45;&#45;17</title>
<path fill="none" stroke="#000000" d="M915.9755,-577.5656C957.7704,-658.3931 1127.2413,-986.1345 1168.9559,-1066.8069"/>
</g>
<!-- 18 -->
<g id="node21" class="node">
<title>18</title>
<ellipse fill="#ffc0c0" stroke="#000000" cx="345.5404" cy="-715.7274" rx="66.0889" ry="18"/>
<text text-anchor="middle" x="345.5404" y="-712.0274" font-family="Times,serif" font-size="14.00" fill="#000000">18 &#45; 24.393589</text>
</g>
<!-- 14&#45;&#45;18 -->
<g id="edge22" class="edge">
<title>14&#45;&#45;18</title>
<path fill="none" stroke="#000000" d="M861.6575,-572.0046C756.9893,-601.1515 497.9244,-673.2931 391.9009,-702.8174"/>
</g>
<!-- 22&#45;&#45;52 -->
<g id="edge43" class="edge">
<title>22&#45;&#45;52</title>
<path fill="none" stroke="#000000" d="M1484.0773,-561.5468C1575.9941,-517.5304 1834.5123,-393.7334 1926.3387,-349.7604"/>
</g>
<!-- 22&#45;&#45;54 -->
<g id="edge44" class="edge">
<title>22&#45;&#45;54</title>
<path fill="none" stroke="#000000" d="M1424.0252,-593.8699C1371.34,-626.0299 1255.6956,-696.6213 1203.1726,-728.6822"/>
</g>
<!-- 56 -->
<g id="node35" class="node">
<title>56</title>
<ellipse fill="#ffe9e9" stroke="#000000" cx="1350.3681" cy="-1108.1248" rx="61.99" ry="18"/>
<text text-anchor="middle" x="1350.3681" y="-1104.4248" font-family="Times,serif" font-size="14.00" fill="#000000">56 &#45; 8.592857</text>
</g>
<!-- 22&#45;&#45;56 -->
<g id="edge45" class="edge">
<title>22&#45;&#45;56</title>
<path fill="none" stroke="#000000" d="M1447.6639,-595.5945C1432.1603,-677.2637 1369.2959,-1008.4178 1353.822,-1089.9302"/>
</g>
<!-- 17&#45;&#45;61 -->
<g id="edge24" class="edge">
<title>17&#45;&#45;61</title>
<path fill="none" stroke="#000000" d="M1227.4657,-1072.7083C1313.465,-1051.5474 1490.0243,-1008.1036 1574.7431,-987.2578"/>
</g>
<!-- 17&#45;&#45;55 -->
<g id="edge25" class="edge">
<title>17&#45;&#45;55</title>
<path fill="none" stroke="#000000" d="M1184.7467,-1102.9551C1195.4483,-1132.9167 1216.6923,-1192.3942 1227.3667,-1222.2796"/>
</g>
<!-- 48 -->
<g id="node25" class="node">
<title>48</title>
<ellipse fill="#ffe4e4" stroke="#000000" cx="1268.2154" cy="-1677.1887" rx="66.0889" ry="18"/>
<text text-anchor="middle" x="1268.2154" y="-1673.4887" font-family="Times,serif" font-size="14.00" fill="#000000">48 &#45; 10.333334</text>
</g>
<!-- 17&#45;&#45;48 -->
<g id="edge26" class="edge">
<title>17&#45;&#45;48</title>
<path fill="none" stroke="#000000" d="M1181.0082,-1102.866C1194.3162,-1190.5091 1252.0929,-1571.0103 1265.4515,-1658.9867"/>
</g>
<!-- 53 -->
<g id="node26" class="node">
<title>53</title>
<ellipse fill="#ffdcdc" stroke="#000000" cx="821.1741" cy="-848.5775" rx="66.0889" ry="18"/>
<text text-anchor="middle" x="821.1741" y="-844.8775" font-family="Times,serif" font-size="14.00" fill="#000000">53 &#45; 13.341667</text>
</g>
<!-- 17&#45;&#45;53 -->
<g id="edge27" class="edge">
<title>17&#45;&#45;53</title>
<path fill="none" stroke="#000000" d="M1152.8722,-1068.0138C1087.2249,-1024.5846 912.4469,-908.9594 846.6785,-865.4501"/>
</g>
<!-- 8 -->
<g id="node27" class="node">
<title>8</title>
<ellipse fill="#fff6f6" stroke="#000000" cx="176.0638" cy="-543.952" rx="57.3905" ry="18"/>
<text text-anchor="middle" x="176.0638" y="-540.252" font-family="Times,serif" font-size="14.00" fill="#000000">8 &#45; 3.277472</text>
</g>
<!-- 18&#45;&#45;8 -->
<g id="edge28" class="edge">
<title>18&#45;&#45;8</title>
<path fill="none" stroke="#000000" d="M328.3574,-698.3114C295.7905,-665.3028 225.4467,-594.0048 193.0403,-561.1588"/>
</g>
<!-- 36 -->
<g id="node28" class="node">
<title>36</title>
<ellipse fill="#ffc0c0" stroke="#000000" cx="410.6802" cy="-1001.9507" rx="66.0889" ry="18"/>
<text text-anchor="middle" x="410.6802" y="-998.2507" font-family="Times,serif" font-size="14.00" fill="#000000">36 &#45; 24.676191</text>
</g>
<!-- 18&#45;&#45;36 -->
<g id="edge29" class="edge">
<title>18&#45;&#45;36</title>
<path fill="none" stroke="#000000" d="M349.7142,-734.0674C361.4798,-785.7652 394.8181,-932.2529 406.5411,-983.7635"/>
</g>
<!-- 19 -->
<g id="node29" class="node">
<title>19</title>
<ellipse fill="#ffc2c2" stroke="#000000" cx="110.4625" cy="-945.5082" rx="66.0889" ry="18"/>
<text text-anchor="middle" x="110.4625" y="-941.8082" font-family="Times,serif" font-size="14.00" fill="#000000">19 &#45; 23.585592</text>
</g>
<!-- 18&#45;&#45;19 -->
<g id="edge30" class="edge">
<title>18&#45;&#45;19</title>
<path fill="none" stroke="#000000" d="M327.4845,-733.3764C283.6194,-776.2531 171.8532,-885.5008 128.2581,-928.1136"/>
</g>
<!-- 47 -->
<g id="node49" class="node">
<title>47</title>
<ellipse fill="#ffcece" stroke="#000000" cx="2196.0143" cy="-1445.599" rx="66.0889" ry="18"/>
<text text-anchor="middle" x="2196.0143" y="-1441.899" font-family="Times,serif" font-size="14.00" fill="#000000">47 &#45; 19.137178</text>
</g>
<!-- 34&#45;&#45;47 -->
<g id="edge70" class="edge">
<title>34&#45;&#45;47</title>
<path fill="none" stroke="#000000" d="M1923.3553,-1251.4853C1978.8565,-1290.9982 2116.5327,-1389.0138 2172.1454,-1428.606"/>
</g>
<!-- 55&#45;&#45;56 -->
<g id="edge94" class="edge">
<title>55&#45;&#45;56</title>
<path fill="none" stroke="#000000" d="M1249.2837,-1222.7527C1271.578,-1197.4713 1312.4955,-1151.0716 1334.8254,-1125.7499"/>
</g>
<!-- 49 -->
<g id="node46" class="node">
<title>49</title>
<ellipse fill="#ffeded" stroke="#000000" cx="1413.2904" cy="-1483.4039" rx="61.99" ry="18"/>
<text text-anchor="middle" x="1413.2904" y="-1479.7039" font-family="Times,serif" font-size="14.00" fill="#000000">49 &#45; 7.000000</text>
</g>
<!-- 48&#45;&#45;49 -->
<g id="edge84" class="edge">
<title>48&#45;&#45;49</title>
<path fill="none" stroke="#000000" d="M1281.6036,-1659.3053C1309.241,-1622.3885 1372.3248,-1538.1239 1399.9345,-1501.2441"/>
</g>
<!-- 53&#45;&#45;54 -->
<g id="edge92" class="edge">
<title>53&#45;&#45;54</title>
<path fill="none" stroke="#000000" d="M866.5077,-835.3676C935.2195,-815.3453 1064.8806,-777.5628 1132.5952,-757.8311"/>
</g>
<!-- 37 -->
<g id="node41" class="node">
<title>37</title>
<ellipse fill="#ffdcdc" stroke="#000000" cx="242.4968" cy="-1193.1338" rx="66.0889" ry="18"/>
<text text-anchor="middle" x="242.4968" y="-1189.4338" font-family="Times,serif" font-size="14.00" fill="#000000">37 &#45; 13.690477</text>
</g>
<!-- 36&#45;&#45;37 -->
<g id="edge72" class="edge">
<title>36&#45;&#45;37</title>
<path fill="none" stroke="#000000" d="M395.1593,-1019.594C363.1197,-1056.0152 289.9876,-1139.1484 257.9801,-1175.5331"/>
</g>
<!-- 50 -->
<g id="node47" class="node">
<title>50</title>
<ellipse fill="#ffd2d2" stroke="#000000" cx="934.6111" cy="-1061.7148" rx="66.0889" ry="18"/>
<text text-anchor="middle" x="934.6111" y="-1058.0148" font-family="Times,serif" font-size="14.00" fill="#000000">50 &#45; 17.281349</text>
</g>
<!-- 36&#45;&#45;50 -->
<g id="edge73" class="edge">
<title>36&#45;&#45;50</title>
<path fill="none" stroke="#000000" d="M471.8071,-1008.9233C572.6282,-1020.4239 772.6381,-1043.2387 873.4691,-1054.7404"/>
</g>
<!-- 19&#45;&#45;3 -->
<g id="edge31" class="edge">
<title>19&#45;&#45;3</title>
<path fill="none" stroke="#000000" d="M130.2846,-962.7064C207.6054,-1029.7919 488.4877,-1273.4927 565.9567,-1340.7069"/>
</g>
<!-- 27 -->
<g id="node31" class="node">
<title>27</title>
<ellipse fill="#ffeded" stroke="#000000" cx="61.7445" cy="-760.3205" rx="61.99" ry="18"/>
<text text-anchor="middle" x="61.7445" y="-756.6205" font-family="Times,serif" font-size="14.00" fill="#000000">27 &#45; 6.767857</text>
</g>
<!-- 19&#45;&#45;27 -->
<g id="edge32" class="edge">
<title>19&#45;&#45;27</title>
<path fill="none" stroke="#000000" d="M105.7025,-927.4144C96.3888,-892.0108 75.8531,-813.9502 66.5238,-778.4877"/>
</g>
<!-- 2 -->
<g id="node32" class="node">
<title>2</title>
<ellipse fill="#ffdede" stroke="#000000" cx="81.33" cy="-473.5833" rx="61.99" ry="18"/>
<text text-anchor="middle" x="81.33" y="-469.8833" font-family="Times,serif" font-size="14.00" fill="#000000">2 &#45; 12.651527</text>
</g>
<!-- 19&#45;&#45;2 -->
<g id="edge33" class="edge">
<title>19&#45;&#45;2</title>
<path fill="none" stroke="#000000" d="M109.3383,-927.2973C104.7008,-852.1718 87.0822,-566.7641 82.4509,-491.7399"/>
</g>
<!-- 30 -->
<g id="node42" class="node">
<title>30</title>
<ellipse fill="#ffdada" stroke="#000000" cx="492.3313" cy="-1552.8404" rx="66.0889" ry="18"/>
<text text-anchor="middle" x="492.3313" y="-1549.1404" font-family="Times,serif" font-size="14.00" fill="#000000">30 &#45; 14.397558</text>
</g>
<!-- 3&#45;&#45;30 -->
<g id="edge62" class="edge">
<title>3&#45;&#45;30</title>
<path fill="none" stroke="#000000" d="M577.2319,-1375.9614C559.4136,-1413.0834 518.7425,-1497.8162 500.942,-1534.901"/>
</g>
<!-- 28 -->
<g id="node40" class="node">
<title>28</title>
<ellipse fill="#ffb1b1" stroke="#000000" cx="511.3017" cy="-1058.2229" rx="66.0889" ry="18"/>
<text text-anchor="middle" x="511.3017" y="-1054.5229" font-family="Times,serif" font-size="14.00" fill="#000000">28 &#45; 30.382692</text>
</g>
<!-- 27&#45;&#45;28 -->
<g id="edge53" class="edge">
<title>27&#45;&#45;28</title>
<path fill="none" stroke="#000000" d="M86.878,-776.9754C165.6498,-829.1742 407.1588,-989.2118 486.0682,-1041.5018"/>
</g>
<!-- 2&#45;&#45;24 -->
<g id="edge34" class="edge">
<title>2&#45;&#45;24</title>
<path fill="none" stroke="#000000" d="M99.792,-456.3055C162.4764,-397.6413 366.7602,-206.4595 429.8279,-147.4366"/>
</g>
<!-- 2&#45;&#45;27 -->
<g id="edge35" class="edge">
<title>2&#45;&#45;27</title>
<path fill="none" stroke="#000000" d="M80.0751,-491.9562C76.5375,-543.7468 66.5138,-690.4976 62.989,-742.1007"/>
</g>
<!-- 20 -->
<g id="node33" class="node">
<title>20</title>
<ellipse fill="#ffdcdc" stroke="#000000" cx="499.3766" cy="-599.8647" rx="66.0889" ry="18"/>
<text text-anchor="middle" x="499.3766" y="-596.1647" font-family="Times,serif" font-size="14.00" fill="#000000">20 &#45; 13.396826</text>
</g>
<!-- 2&#45;&#45;20 -->
<g id="edge36" class="edge">
<title>2&#45;&#45;20</title>
<path fill="none" stroke="#000000" d="M124.4938,-486.622C204.2885,-510.726 374.0861,-562.0176 454.875,-586.4219"/>
</g>
<!-- 20&#45;&#45;40 -->
<g id="edge37" class="edge">
<title>20&#45;&#45;40</title>
<path fill="none" stroke="#000000" d="M506.4458,-617.9087C536.6208,-694.9298 654.4632,-995.7208 684.5655,-1072.5566"/>
</g>
<!-- 20&#45;&#45;23 -->
<g id="edge38" class="edge">
<title>20&#45;&#45;23</title>
<path fill="none" stroke="#000000" d="M517.1935,-582.2549C585.2436,-514.9955 828.3366,-274.7272 896.2728,-207.5805"/>
</g>
<!-- 20&#45;&#45;36 -->
<g id="edge39" class="edge">
<title>20&#45;&#45;36</title>
<path fill="none" stroke="#000000" d="M495.3932,-617.9226C480.6626,-684.7008 429.3651,-917.2467 414.6526,-983.9425"/>
</g>
<!-- 41&#45;&#45;55 -->
<g id="edge79" class="edge">
<title>41&#45;&#45;55</title>
<path fill="none" stroke="#000000" d="M1017.1856,-1537.7698C1057.6017,-1482.2698 1180.7234,-1313.1977 1220.9442,-1257.9659"/>
</g>
<!-- 41&#45;&#45;42 -->
<g id="edge80" class="edge">
<title>41&#45;&#45;42</title>
<path fill="none" stroke="#000000" d="M1002.6127,-1574.0254C998.356,-1623.9292 986.6271,-1761.4342 982.3784,-1811.2442"/>
</g>
<!-- 56&#45;&#45;58 -->
<g id="edge95" class="edge">
<title>56&#45;&#45;58</title>
<path fill="none" stroke="#000000" d="M1346.6887,-1090.0311C1338.6899,-1050.696 1319.793,-957.7691 1311.7746,-918.3376"/>
</g>
<!-- 59&#45;&#45;6 -->
<g id="edge98" class="edge">
<title>59&#45;&#45;6</title>
<path fill="none" stroke="#000000" d="M1008.7164,-305.3529C943.7991,-263.2209 774.0458,-153.0497 709.599,-111.2231"/>
</g>
<!-- 45&#45;&#45;51 -->
<g id="edge82" class="edge">
<title>45&#45;&#45;51</title>
<path fill="none" stroke="#000000" d="M1500.2406,-232.5924C1494.3362,-309.3537 1471.2969,-608.8795 1465.3682,-685.9566"/>
</g>
<!-- 45&#45;&#45;52 -->
<g id="edge83" class="edge">
<title>45&#45;&#45;52</title>
<path fill="none" stroke="#000000" d="M1548.0191,-226.698C1635.2674,-249.47 1822.9375,-298.4525 1911.3195,-321.5205"/>
</g>
<!-- 7&#45;&#45;8 -->
<g id="edge101" class="edge">
<title>7&#45;&#45;8</title>
<path fill="none" stroke="#000000" d="M235.797,-73.5257C226.0061,-150.6337 188.1117,-449.0689 178.3617,-525.8546"/>
</g>
<!-- 26&#45;&#45;53 -->
<g id="edge51" class="edge">
<title>26&#45;&#45;53</title>
<path fill="none" stroke="#000000" d="M371.6107,-503.6593C450.7484,-564.3761 719.3339,-770.4427 798.8308,-831.4351"/>
</g>
<!-- 26&#45;&#45;27 -->
<g id="edge52" class="edge">
<title>26&#45;&#45;27</title>
<path fill="none" stroke="#000000" d="M331.0555,-504.2232C279.0822,-553.6465 131.8138,-693.6892 80.0287,-742.9335"/>
</g>
<!-- 28&#45;&#45;29 -->
<g id="edge54" class="edge">
<title>28&#45;&#45;29</title>
<path fill="none" stroke="#000000" d="M527.5012,-1076.0209C577.8509,-1131.3389 731.2335,-1299.8567 781.34,-1354.9075"/>
</g>
<!-- 28&#45;&#45;58 -->
<g id="edge55" class="edge">
<title>28&#45;&#45;58</title>
<path fill="none" stroke="#000000" d="M565.1286,-1047.5433C710.383,-1018.7238 1109.1642,-939.6027 1254.3261,-910.8016"/>
</g>
<!-- 28&#45;&#45;8 -->
<g id="edge56" class="edge">
<title>28&#45;&#45;8</title>
<path fill="none" stroke="#000000" d="M499.567,-1040.2213C447.707,-960.6657 239.3711,-641.0685 187.7033,-561.8076"/>
</g>
<!-- 28&#45;&#45;37 -->
<g id="edge57" class="edge">
<title>28&#45;&#45;37</title>
<path fill="none" stroke="#000000" d="M479.6759,-1074.0956C428.049,-1100.0067 326.2372,-1151.1052 274.419,-1177.1123"/>
</g>
<!-- 28&#45;&#45;30 -->
<g id="edge58" class="edge">
<title>28&#45;&#45;30</title>
<path fill="none" stroke="#000000" d="M510.604,-1076.4132C507.626,-1154.0586 495.9961,-1457.2877 493.0252,-1534.7463"/>
</g>
<!-- 35 -->
<g id="node43" class="node">
<title>35</title>
<ellipse fill="#fff7f7" stroke="#000000" cx="415.758" cy="-1394.1431" rx="61.99" ry="18"/>
<text text-anchor="middle" x="415.758" y="-1390.4431" font-family="Times,serif" font-size="14.00" fill="#000000">35 &#45; 2.964286</text>
</g>
<!-- 28&#45;&#45;35 -->
<g id="edge59" class="edge">
<title>28&#45;&#45;35</title>
<path fill="none" stroke="#000000" d="M506.1649,-1076.2835C489.5753,-1134.6102 437.5458,-1317.5396 420.9202,-1375.9933"/>
</g>
<!-- 37&#45;&#45;40 -->
<g id="edge74" class="edge">
<title>37&#45;&#45;40</title>
<path fill="none" stroke="#000000" d="M293.5771,-1181.4609C380.0196,-1161.707 554.1546,-1121.9136 640.5648,-1102.1672"/>
</g>
<!-- 31 -->
<g id="node45" class="node">
<title>31</title>
<ellipse fill="#ffcbcb" stroke="#000000" cx="912.5323" cy="-1453.4185" rx="66.0889" ry="18"/>
<text text-anchor="middle" x="912.5323" y="-1449.7185" font-family="Times,serif" font-size="14.00" fill="#000000">31 &#45; 20.063494</text>
</g>
<!-- 30&#45;&#45;31 -->
<g id="edge63" class="edge">
<title>30&#45;&#45;31</title>
<path fill="none" stroke="#000000" d="M542.6,-1540.9465C623.5281,-1521.7985 781.7757,-1484.3562 862.5323,-1465.2488"/>
</g>
<!-- 35&#45;&#45;36 -->
<g id="edge71" class="edge">
<title>35&#45;&#45;36</title>
<path fill="none" stroke="#000000" d="M415.5232,-1376.0135C414.6748,-1310.4811 411.7721,-1086.2905 410.9183,-1020.3404"/>
</g>
<!-- 42&#45;&#45;48 -->
<g id="edge81" class="edge">
<title>42&#45;&#45;48</title>
<path fill="none" stroke="#000000" d="M1010.7593,-1813.6877C1065.8231,-1784.4937 1182.5721,-1722.5954 1237.9071,-1693.2577"/>
</g>
<!-- 31&#45;&#45;56 -->
<g id="edge64" class="edge">
<title>31&#45;&#45;56</title>
<path fill="none" stroke="#000000" d="M934.2447,-1436.2954C1008.8731,-1377.4406 1254.3505,-1183.8478 1328.7835,-1125.1472"/>
</g>
<!-- 31&#45;&#45;35 -->
<g id="edge65" class="edge">
<title>31&#45;&#45;35</title>
<path fill="none" stroke="#000000" d="M851.618,-1446.1502C754.8487,-1434.6036 567.3175,-1412.2273 472.9413,-1400.9663"/>
</g>
<!-- 31&#45;&#45;49 -->
<g id="edge66" class="edge">
<title>31&#45;&#45;49</title>
<path fill="none" stroke="#000000" d="M977.4843,-1457.3078C1075.0022,-1463.1472 1257.898,-1474.099 1352.7593,-1479.7793"/>
</g>
<!-- 31&#45;&#45;50 -->
<g id="edge67" class="edge">
<title>31&#45;&#45;50</title>
<path fill="none" stroke="#000000" d="M913.553,-1435.3114C917.2422,-1369.8607 929.8631,-1145.9495 933.5759,-1080.0816"/>
</g>
<!-- 49&#45;&#45;58 -->
<g id="edge85" class="edge">
<title>49&#45;&#45;58</title>
<path fill="none" stroke="#000000" d="M1410.0261,-1465.3083C1394.3652,-1378.4923 1327.0432,-1005.295 1311.3518,-918.3102"/>
</g>
<!-- 5 -->
<g id="node52" class="node">
<title>5</title>
<ellipse fill="#ffe5e5" stroke="#000000" cx="1021.3696" cy="-1302.5517" rx="57.3905" ry="18"/>
<text text-anchor="middle" x="1021.3696" y="-1298.8517" font-family="Times,serif" font-size="14.00" fill="#000000">5 &#45; 9.991667</text>
</g>
<!-- 49&#45;&#45;5 -->
<g id="edge86" class="edge">
<title>49&#45;&#45;5</title>
<path fill="none" stroke="#000000" d="M1380.2133,-1468.1404C1306.0263,-1433.9067 1127.1195,-1351.3501 1053.6699,-1317.4567"/>
</g>
<!-- 50&#45;&#45;51 -->
<g id="edge89" class="edge">
<title>50&#45;&#45;51</title>
<path fill="none" stroke="#000000" d="M959.4332,-1044.947C1048.3503,-984.8821 1350.3712,-780.862 1439.2024,-720.8551"/>
</g>
<!-- 32 -->
<g id="node48" class="node">
<title>32</title>
<ellipse fill="#ffecec" stroke="#000000" cx="1923.7124" cy="-1717.5575" rx="61.99" ry="18"/>
<text text-anchor="middle" x="1923.7124" y="-1713.8575" font-family="Times,serif" font-size="14.00" fill="#000000">32 &#45; 7.166667</text>
</g>
<!-- 32&#45;&#45;49 -->
<g id="edge68" class="edge">
<title>32&#45;&#45;49</title>
<path fill="none" stroke="#000000" d="M1890.2222,-1702.1941C1797.6259,-1659.716 1538.917,-1541.0345 1446.5715,-1498.6714"/>
</g>
<!-- 32&#45;&#45;47 -->
<g id="edge69" class="edge">
<title>32&#45;&#45;47</title>
<path fill="none" stroke="#000000" d="M1941.1603,-1700.1316C1990.2262,-1651.1275 2129.0418,-1512.487 2178.3593,-1463.2318"/>
</g>
<!-- 38 -->
<g id="node50" class="node">
<title>38</title>
<ellipse fill="#ffd2d2" stroke="#000000" cx="2105.0422" cy="-1024.1886" rx="66.0889" ry="18"/>
<text text-anchor="middle" x="2105.0422" y="-1020.4886" font-family="Times,serif" font-size="14.00" fill="#000000">38 &#45; 17.370514</text>
</g>
<!-- 38&#45;&#45;58 -->
<g id="edge75" class="edge">
<title>38&#45;&#45;58</title>
<path fill="none" stroke="#000000" d="M2047.4056,-1015.2173C1900.3616,-992.3294 1512.5434,-931.9641 1365.6095,-909.0933"/>
</g>
<!-- 38&#45;&#45;47 -->
<g id="edge76" class="edge">
<title>38&#45;&#45;47</title>
<path fill="none" stroke="#000000" d="M2108.9511,-1042.2961C2123.8811,-1111.4563 2177.215,-1358.5146 2192.1199,-1427.559"/>
</g>
<!-- 57 -->
<g id="node51" class="node">
<title>57</title>
<ellipse fill="#fff7f7" stroke="#000000" cx="2655.0441" cy="-808.3631" rx="61.99" ry="18"/>
<text text-anchor="middle" x="2655.0441" y="-804.6631" font-family="Times,serif" font-size="14.00" fill="#000000">57 &#45; 2.933333</text>
</g>
<!-- 38&#45;&#45;57 -->
<g id="edge77" class="edge">
<title>38&#45;&#45;57</title>
<path fill="none" stroke="#000000" d="M2142.846,-1009.3541C2243.6868,-969.7833 2518.1767,-862.071 2618.0643,-822.8743"/>
</g>
<!-- 9 -->
<g id="node54" class="node">
<title>9</title>
<ellipse fill="#fffbfb" stroke="#000000" cx="2854.6449" cy="-462.1357" rx="57.3905" ry="18"/>
<text text-anchor="middle" x="2854.6449" y="-458.4357" font-family="Times,serif" font-size="14.00" fill="#000000">9 &#45; 1.333333</text>
</g>
<!-- 57&#45;&#45;9 -->
<g id="edge96" class="edge">
<title>57&#45;&#45;9</title>
<path fill="none" stroke="#000000" d="M2665.4945,-790.2359C2699.9863,-730.4063 2809.9575,-539.6503 2844.298,-480.0834"/>
</g>
<!-- 5&#45;&#45;53 -->
<g id="edge87" class="edge">
<title>5&#45;&#45;53</title>
<path fill="none" stroke="#000000" d="M1013.3981,-1284.4752C981.2547,-1211.5851 861.3531,-939.6896 829.1683,-866.7056"/>
</g>
<!-- 5&#45;&#45;50 -->
<g id="edge88" class="edge">
<title>5&#45;&#45;50</title>
<path fill="none" stroke="#000000" d="M1014.8486,-1284.4498C998.7309,-1239.7079 957.1621,-1124.3151 941.0894,-1079.6982"/>
</g>
<!-- 62&#45;&#45;9 -->
<g id="edge100" class="edge">
<title>62&#45;&#45;9</title>
<path fill="none" stroke="#000000" d="M2556.6339,-263.7783C2616.7211,-303.7726 2769.5924,-405.5244 2829.7665,-445.5765"/>
</g>
</g>
</svg>
